<svg width="20" height="20" viewBox="0 0 20 20" fill="none" xmlns="http://www.w3.org/2000/svg">
<path d="M10 11.875C9.27806 11.8756 8.56722 11.6973 7.93103 11.3561C7.29484 11.0148 6.75315 10.5212 6.35438 9.91938L7.39563 9.2275C7.68067 9.65733 8.06766 10.0099 8.52209 10.2538C8.97652 10.4978 9.48425 10.6254 10 10.6254C10.5158 10.6254 11.0235 10.4978 11.4779 10.2538C11.9323 10.0099 12.3193 9.65733 12.6044 9.2275L13.6456 9.91938C13.2469 10.5212 12.7052 11.0148 12.069 11.3561C11.4328 11.6973 10.7219 11.8756 10 11.875ZM12.5 5C12.2528 5 12.0111 5.07331 11.8055 5.21067C11.6 5.34802 11.4398 5.54324 11.3452 5.77165C11.2505 6.00006 11.2258 6.25139 11.274 6.49387C11.3223 6.73634 11.4413 6.95907 11.6161 7.13389C11.7909 7.3087 12.0137 7.42775 12.2561 7.47598C12.4986 7.52422 12.7499 7.49946 12.9784 7.40485C13.2068 7.31024 13.402 7.15003 13.5393 6.94447C13.6767 6.7389 13.75 6.49723 13.75 6.25C13.7517 6.08539 13.7205 5.92209 13.6583 5.76968C13.596 5.61727 13.504 5.4788 13.3876 5.36239C13.2712 5.24599 13.1327 5.15398 12.9803 5.09175C12.8279 5.02952 12.6646 4.99833 12.5 5ZM7.5 5C7.25277 5 7.0111 5.07331 6.80554 5.21067C6.59998 5.34802 6.43976 5.54324 6.34515 5.77165C6.25054 6.00006 6.22579 6.25139 6.27402 6.49387C6.32225 6.73634 6.4413 6.95907 6.61612 7.13389C6.79093 7.3087 7.01366 7.42775 7.25614 7.47598C7.49861 7.52422 7.74995 7.49946 7.97835 7.40485C8.20676 7.31024 8.40199 7.15003 8.53934 6.94447C8.67669 6.7389 8.75 6.49723 8.75 6.25C8.75167 6.08539 8.72048 5.92209 8.65825 5.76968C8.59603 5.61727 8.50402 5.4788 8.38761 5.36239C8.2712 5.24599 8.13274 5.15398 7.98033 5.09175C7.82791 5.02952 7.66462 4.99833 7.5 5Z" fill="#A1B5FF"/>
<path d="M11.085 18.75L10 18.125L12.5 13.75H16.25C16.4142 13.7502 16.5769 13.7181 16.7286 13.6554C16.8804 13.5926 17.0183 13.5006 17.1344 13.3844C17.2506 13.2683 17.3426 13.1304 17.4054 12.9786C17.4681 12.8269 17.5002 12.6642 17.5 12.5V3.75C17.5002 3.58578 17.4681 3.42312 17.4054 3.27135C17.3426 3.11959 17.2506 2.98169 17.1344 2.86557C17.0183 2.74944 16.8804 2.65738 16.7286 2.59465C16.5769 2.53192 16.4142 2.49975 16.25 2.5H3.75C3.58578 2.49975 3.42312 2.53192 3.27135 2.59465C3.11959 2.65738 2.98169 2.74944 2.86557 2.86557C2.74944 2.98169 2.65738 3.11959 2.59465 3.27135C2.53192 3.42312 2.49975 3.58578 2.5 3.75V12.5C2.49975 12.6642 2.53192 12.8269 2.59465 12.9786C2.65738 13.1304 2.74944 13.2683 2.86557 13.3844C2.98169 13.5006 3.11959 13.5926 3.27135 13.6554C3.42312 13.7181 3.58578 13.7502 3.75 13.75H9.375V15H3.75C3.08696 15 2.45107 14.7366 1.98223 14.2678C1.51339 13.7989 1.25 13.163 1.25 12.5V3.75C1.24992 3.42167 1.31453 3.09655 1.44013 2.79319C1.56574 2.48984 1.74989 2.21421 1.98205 1.98205C2.21421 1.74989 2.48984 1.56574 2.79319 1.44013C3.09655 1.31453 3.42167 1.24992 3.75 1.25H16.25C16.5783 1.24992 16.9035 1.31453 17.2068 1.44013C17.5102 1.56574 17.7858 1.74989 18.018 1.98205C18.2501 2.21421 18.4343 2.48984 18.5599 2.79319C18.6855 3.09655 18.7501 3.42167 18.75 3.75V12.5C18.75 13.163 18.4866 13.7989 18.0178 14.2678C17.5489 14.7366 16.913 15 16.25 15H13.2281L11.085 18.75Z" fill="#A1B5FF"/>
</svg>
