<svg width="381" height="151" viewBox="0 0 381 151" fill="none" xmlns="http://www.w3.org/2000/svg">
<path d="M0.298296 121.011V100.06L62.017 2.54545H79.4886V32.375H68.8352L27.2869 98.2131V99.3494H113.438V121.011H0.298296ZM69.6875 148V114.619L69.9716 105.244V2.54545H94.8295V148H69.6875ZM189.893 150.77C178.198 150.77 168.161 147.811 159.78 141.892C151.446 135.926 145.031 127.332 140.533 116.111C136.082 104.842 133.857 91.2765 133.857 75.4148C133.904 59.553 136.153 46.0587 140.604 34.9318C145.102 23.7576 151.518 15.2348 159.851 9.36364C168.232 3.49242 178.246 0.556813 189.893 0.556813C201.541 0.556813 211.555 3.49242 219.936 9.36364C228.317 15.2348 234.732 23.7576 239.183 34.9318C243.681 46.1061 245.93 59.6004 245.93 75.4148C245.93 91.3239 243.681 104.913 239.183 116.182C234.732 127.403 228.317 135.973 219.936 141.892C211.603 147.811 201.589 150.77 189.893 150.77ZM189.893 128.54C198.984 128.54 206.158 124.065 211.413 115.116C216.716 106.12 219.368 92.8864 219.368 75.4148C219.368 63.8617 218.161 54.1553 215.746 46.2955C213.331 38.4356 209.922 32.517 205.518 28.5398C201.115 24.5152 195.907 22.5028 189.893 22.5028C180.85 22.5028 173.7 27.0009 168.445 35.9972C163.189 44.946 160.537 58.0852 160.49 75.4148C160.443 87.0151 161.603 96.7689 163.97 104.676C166.385 112.583 169.794 118.549 174.197 122.574C178.601 126.551 183.833 128.54 189.893 128.54ZM266.9 121.011V100.06L328.619 2.54545H346.09V32.375H335.437L293.888 98.2131V99.3494H380.039V121.011H266.9ZM336.289 148V114.619L336.573 105.244V2.54545H361.431V148H336.289Z" fill="#A1B5FF" fill-opacity="0.2"/>
</svg>
