<svg width="20" height="20" viewBox="0 0 20 20" fill="none" xmlns="http://www.w3.org/2000/svg">
<g clip-path="url(#clip0_310_1449)">
<path d="M16.6669 1.66663H7.778V4.4444H8.88911V2.77774H16.6669C17.0002 2.77774 17.2224 2.99996 17.2224 3.33329V9.4444C17.2224 9.77774 17.0002 9.99996 16.6669 9.99996H9.44466V13.8888H6.50022L4.44466 15.5V13.8888H2.77799C2.44466 13.8888 2.22244 13.6666 2.22244 13.3333V7.22218C2.22244 6.88885 2.44466 6.66663 2.77799 6.66663H10.0002V5.55552H2.77799C1.83355 5.55552 1.11133 6.27774 1.11133 7.22218V13.3333C1.11133 14.2777 1.83355 15 2.77799 15H3.33355V17.8333L6.83355 15H10.5558V11.1111H16.6669C17.6113 11.1111 18.3336 10.3888 18.3336 9.4444V3.33329C18.3336 2.38885 17.6113 1.66663 16.6669 1.66663Z" fill="#1E1F1E"/>
<path d="M3.44531 12.7223H4.77865L5.11198 11.8334H6.8342L7.16753 12.7223H8.50087L6.61198 7.77783H5.27865L3.44531 12.7223ZM5.94531 9.16672L6.50087 10.8889H5.38976L5.94531 9.16672Z" fill="#1E1F1E"/>
<path d="M11.1113 9.44449C11.7224 9.44449 12.5558 9.27782 13.3336 8.88893C14.1113 9.27782 15.0002 9.44449 15.5558 9.44449V8.33337C15.5558 8.33337 15.0002 8.33337 14.3891 8.11115C15.0558 7.44449 15.5558 6.44449 15.5558 5.00004V4.44449H13.8891V3.33337H12.778V4.44449H11.1113V5.5556H14.3891C14.278 6.5556 13.8336 7.16671 13.3336 7.5556C13.0002 7.27782 12.6669 6.88893 12.4447 6.38893H11.278C11.5002 7.11115 11.8336 7.66671 12.278 8.11115C11.7224 8.33337 11.2224 8.33337 11.1113 8.33337V9.44449Z" fill="#1E1F1E"/>
</g>
<defs>
<clipPath id="clip0_310_1449">
<rect width="20" height="20" fill="white"/>
</clipPath>
</defs>
</svg>
