<svg width="89" height="20" viewBox="0 0 89 20" fill="none" xmlns="http://www.w3.org/2000/svg">
<path d="M10 11.875C9.27806 11.8756 8.56722 11.6973 7.93103 11.3561C7.29484 11.0148 6.75315 10.5212 6.35438 9.91938L7.39563 9.2275C7.68067 9.65733 8.06766 10.0099 8.52209 10.2538C8.97652 10.4978 9.48425 10.6254 10 10.6254C10.5158 10.6254 11.0235 10.4978 11.4779 10.2538C11.9323 10.0099 12.3193 9.65733 12.6044 9.2275L13.6456 9.91938C13.2469 10.5212 12.7052 11.0148 12.069 11.3561C11.4328 11.6973 10.7219 11.8756 10 11.875ZM12.5 5C12.2528 5 12.0111 5.07331 11.8055 5.21067C11.6 5.34802 11.4398 5.54324 11.3452 5.77165C11.2505 6.00006 11.2258 6.25139 11.274 6.49387C11.3223 6.73634 11.4413 6.95907 11.6161 7.13389C11.7909 7.3087 12.0137 7.42775 12.2561 7.47598C12.4986 7.52422 12.7499 7.49946 12.9784 7.40485C13.2068 7.31024 13.402 7.15003 13.5393 6.94447C13.6767 6.7389 13.75 6.49723 13.75 6.25C13.7517 6.08539 13.7205 5.92209 13.6583 5.76968C13.596 5.61727 13.504 5.4788 13.3876 5.36239C13.2712 5.24599 13.1327 5.15398 12.9803 5.09175C12.8279 5.02952 12.6646 4.99833 12.5 5ZM7.5 5C7.25277 5 7.0111 5.07331 6.80554 5.21067C6.59998 5.34802 6.43976 5.54324 6.34515 5.77165C6.25054 6.00006 6.22579 6.25139 6.27402 6.49387C6.32225 6.73634 6.4413 6.95907 6.61612 7.13389C6.79093 7.3087 7.01366 7.42775 7.25614 7.47598C7.49861 7.52422 7.74995 7.49946 7.97835 7.40485C8.20676 7.31024 8.40199 7.15003 8.53934 6.94447C8.67669 6.7389 8.75 6.49723 8.75 6.25C8.75167 6.08539 8.72048 5.92209 8.65825 5.76968C8.59603 5.61727 8.50402 5.4788 8.38761 5.36239C8.2712 5.24599 8.13274 5.15398 7.98033 5.09175C7.82791 5.02952 7.66462 4.99833 7.5 5Z" fill="#1E1F1E"/>
<path d="M11.085 18.75L10 18.125L12.5 13.75H16.25C16.4142 13.7502 16.5769 13.7181 16.7286 13.6554C16.8804 13.5926 17.0183 13.5006 17.1344 13.3844C17.2506 13.2683 17.3426 13.1304 17.4054 12.9786C17.4681 12.8269 17.5002 12.6642 17.5 12.5V3.75C17.5002 3.58578 17.4681 3.42312 17.4054 3.27135C17.3426 3.11959 17.2506 2.98169 17.1344 2.86557C17.0183 2.74944 16.8804 2.65738 16.7286 2.59465C16.5769 2.53192 16.4142 2.49975 16.25 2.5H3.75C3.58578 2.49975 3.42312 2.53192 3.27135 2.59465C3.11959 2.65738 2.98169 2.74944 2.86557 2.86557C2.74944 2.98169 2.65738 3.11959 2.59465 3.27135C2.53192 3.42312 2.49975 3.58578 2.5 3.75V12.5C2.49975 12.6642 2.53192 12.8269 2.59465 12.9786C2.65738 13.1304 2.74944 13.2683 2.86557 13.3844C2.98169 13.5006 3.11959 13.5926 3.27135 13.6554C3.42312 13.7181 3.58578 13.7502 3.75 13.75H9.375V15H3.75C3.08696 15 2.45107 14.7366 1.98223 14.2678C1.51339 13.7989 1.25 13.163 1.25 12.5V3.75C1.24992 3.42167 1.31453 3.09655 1.44013 2.79319C1.56574 2.48984 1.74989 2.21421 1.98205 1.98205C2.21421 1.74989 2.48984 1.56574 2.79319 1.44013C3.09655 1.31453 3.42167 1.24992 3.75 1.25H16.25C16.5783 1.24992 16.9035 1.31453 17.2068 1.44013C17.5102 1.56574 17.7858 1.74989 18.018 1.98205C18.2501 2.21421 18.4343 2.48984 18.5599 2.79319C18.6855 3.09655 18.7501 3.42167 18.75 3.75V12.5C18.75 13.163 18.4866 13.7989 18.0178 14.2678C17.5489 14.7366 16.913 15 16.25 15H13.2281L11.085 18.75Z" fill="#1E1F1E"/>
<path d="M33.8686 8.38281H31.6911C31.6513 8.10109 31.5701 7.85085 31.4474 7.6321C31.3248 7.41004 31.1674 7.22112 30.9751 7.06534C30.7829 6.90956 30.5608 6.79025 30.3089 6.70739C30.0604 6.62453 29.7902 6.5831 29.4986 6.5831C28.9716 6.5831 28.5125 6.71402 28.1214 6.97585C27.7304 7.23437 27.4271 7.61222 27.2116 8.10938C26.9962 8.60322 26.8885 9.20312 26.8885 9.90909C26.8885 10.6349 26.9962 11.2448 27.2116 11.7386C27.4304 12.2325 27.7353 12.6054 28.1264 12.8572C28.5175 13.1091 28.9699 13.2351 29.4837 13.2351C29.772 13.2351 30.0388 13.197 30.2841 13.1207C30.5327 13.0445 30.7531 12.9335 30.9453 12.7876C31.1375 12.6385 31.2966 12.4579 31.4226 12.2457C31.5518 12.0336 31.6413 11.7917 31.6911 11.5199L33.8686 11.5298C33.8123 11.9972 33.6714 12.4479 33.446 12.8821C33.224 13.313 32.924 13.6991 32.5462 14.0405C32.1716 14.3786 31.7242 14.647 31.2038 14.8459C30.6868 15.0414 30.1018 15.1392 29.4489 15.1392C28.5407 15.1392 27.7287 14.9337 27.0128 14.5227C26.3002 14.1117 25.7367 13.5168 25.3224 12.7379C24.9115 11.959 24.706 11.0161 24.706 9.90909C24.706 8.79877 24.9148 7.85417 25.3324 7.07528C25.75 6.2964 26.3168 5.70312 27.0327 5.29545C27.7486 4.88447 28.554 4.67898 29.4489 4.67898C30.0388 4.67898 30.5857 4.76184 31.0895 4.92756C31.5966 5.09328 32.0457 5.33523 32.4368 5.65341C32.8279 5.96828 33.1461 6.3544 33.3913 6.81179C33.6399 7.26918 33.799 7.79285 33.8686 8.38281ZM37.4904 10.5852V15H35.3725V4.81818H37.4308V8.71094H37.5202C37.6926 8.26018 37.971 7.9072 38.3555 7.65199C38.7399 7.39347 39.2222 7.2642 39.8022 7.2642C40.3325 7.2642 40.7949 7.38021 41.1893 7.61222C41.587 7.84091 41.8952 8.17069 42.114 8.60156C42.3361 9.02912 42.4454 9.54119 42.4421 10.1378V15H40.3242V10.5156C40.3275 10.045 40.2082 9.67874 39.9663 9.4169C39.7276 9.15507 39.3929 9.02415 38.962 9.02415C38.6737 9.02415 38.4184 9.08546 38.1964 9.2081C37.9776 9.33073 37.8053 9.50971 37.6793 9.74503C37.5567 9.97704 37.4937 10.2571 37.4904 10.5852ZM46.2864 15.1442C45.7992 15.1442 45.365 15.0597 44.9838 14.8906C44.6027 14.7183 44.3011 14.4647 44.079 14.13C43.8603 13.7919 43.7509 13.371 43.7509 12.8672C43.7509 12.4429 43.8288 12.0866 43.9846 11.7983C44.1403 11.5099 44.3525 11.2779 44.6209 11.1023C44.8894 10.9266 45.1943 10.794 45.5357 10.7045C45.8804 10.6151 46.2417 10.5521 46.6195 10.5156C47.0636 10.4692 47.4216 10.4261 47.6934 10.3864C47.9651 10.3433 48.1623 10.2803 48.285 10.1974C48.4076 10.1146 48.4689 9.99195 48.4689 9.82955V9.79972C48.4689 9.48485 48.3695 9.24124 48.1706 9.06889C47.9751 8.89654 47.6967 8.81037 47.3354 8.81037C46.9542 8.81037 46.651 8.89489 46.4256 9.06392C46.2002 9.22964 46.0511 9.43845 45.9782 9.69034L44.0194 9.53125C44.1188 9.06723 44.3143 8.66619 44.606 8.32812C44.8977 7.98674 45.2739 7.7249 45.7346 7.54261C46.1986 7.35701 46.7355 7.2642 47.3453 7.2642C47.7696 7.2642 48.1756 7.31392 48.5634 7.41335C48.9545 7.51278 49.3008 7.6669 49.6025 7.87571C49.9074 8.08452 50.1477 8.35298 50.3233 8.68111C50.499 9.00592 50.5868 9.39536 50.5868 9.84943V15H48.5783V13.9411H48.5186C48.396 14.1797 48.2319 14.3902 48.0265 14.5724C47.821 14.7514 47.574 14.8923 47.2857 14.995C46.9973 15.0945 46.6642 15.1442 46.2864 15.1442ZM46.8929 13.6825C47.2045 13.6825 47.4796 13.6212 47.7182 13.4986C47.9569 13.3726 48.1441 13.2036 48.28 12.9915C48.4159 12.7794 48.4838 12.5391 48.4838 12.2706V11.4602C48.4176 11.5033 48.3264 11.5431 48.2104 11.5795C48.0977 11.6127 47.9701 11.6442 47.8276 11.674C47.6851 11.7005 47.5426 11.7254 47.4 11.7486C47.2575 11.7685 47.1283 11.7867 47.0123 11.8033C46.7637 11.8397 46.5466 11.8977 46.361 11.9773C46.1754 12.0568 46.0312 12.1645 45.9284 12.3004C45.8257 12.433 45.7743 12.5987 45.7743 12.7976C45.7743 13.0859 45.8787 13.3063 46.0875 13.4588C46.2997 13.608 46.5681 13.6825 46.8929 13.6825ZM56.2917 7.36364V8.95455H51.693V7.36364H56.2917ZM52.737 5.53409H54.8549V12.6534C54.8549 12.849 54.8848 13.0014 54.9444 13.1108C55.0041 13.2169 55.0869 13.2914 55.193 13.3345C55.3024 13.3776 55.4283 13.3991 55.5708 13.3991C55.6703 13.3991 55.7697 13.3909 55.8691 13.3743C55.9686 13.3544 56.0448 13.3395 56.0978 13.3295L56.4309 14.9055C56.3249 14.9387 56.1757 14.9768 55.9835 15.0199C55.7913 15.0663 55.5576 15.0945 55.2825 15.1044C54.7721 15.1243 54.3246 15.0563 53.9402 14.9006C53.559 14.7448 53.2624 14.5028 53.0502 14.1747C52.8381 13.8466 52.7337 13.4323 52.737 12.9318V5.53409ZM61.7331 7.36364V8.95455H57.1344V7.36364H61.7331ZM58.1784 5.53409H60.2963V12.6534C60.2963 12.849 60.3262 13.0014 60.3858 13.1108C60.4455 13.2169 60.5283 13.2914 60.6344 13.3345C60.7438 13.3776 60.8697 13.3991 61.0123 13.3991C61.1117 13.3991 61.2111 13.3909 61.3105 13.3743C61.41 13.3544 61.4862 13.3395 61.5392 13.3295L61.8723 14.9055C61.7663 14.9387 61.6171 14.9768 61.4249 15.0199C61.2327 15.0663 60.999 15.0945 60.7239 15.1044C60.2135 15.1243 59.766 15.0563 59.3816 14.9006C59.0004 14.7448 58.7038 14.5028 58.4917 14.1747C58.2795 13.8466 58.1751 13.4323 58.1784 12.9318V5.53409ZM64.4203 17.8636C64.1518 17.8636 63.8999 17.8421 63.6646 17.799C63.4326 17.7592 63.2404 17.7079 63.0879 17.6449L63.5652 16.0639C63.8137 16.1402 64.0375 16.1816 64.2363 16.1882C64.4385 16.1948 64.6125 16.1484 64.7583 16.049C64.9075 15.9496 65.0285 15.7805 65.1213 15.5419L65.2456 15.2188L62.5062 7.36364H64.7335L66.3145 12.9716H66.394L67.9899 7.36364H70.2321L67.264 15.8253C67.1215 16.2363 66.9276 16.5942 66.6824 16.8991C66.4404 17.2074 66.1338 17.4444 65.7626 17.6101C65.3914 17.7791 64.944 17.8636 64.4203 17.8636ZM76.3509 15H74.044L77.5589 4.81818H80.3331L83.843 15H81.5362L78.9858 7.14489H78.9062L76.3509 15ZM76.2067 10.9979H81.6555V12.6783H76.2067V10.9979ZM87.2212 4.81818V15H85.0685V4.81818H87.2212Z" fill="#1E1F1E"/>
</svg>
