<svg width="20" height="20" viewBox="0 0 20 20" fill="none" xmlns="http://www.w3.org/2000/svg">
<path d="M10 12.8125C10.9942 12.8114 11.9474 12.4159 12.6504 11.7129C13.3534 11.0099 13.7489 10.0567 13.75 9.0625V4.375C13.75 3.38044 13.3549 2.42661 12.6517 1.72335C11.9484 1.02009 10.9946 0.625 10 0.625C9.00544 0.625 8.05161 1.02009 7.34835 1.72335C6.64509 2.42661 6.25 3.38044 6.25 4.375V9.0625C6.25112 10.0567 6.64656 11.0099 7.34958 11.7129C8.0526 12.4159 9.00578 12.8114 10 12.8125ZM7.5 4.375C7.5 3.71196 7.76339 3.07607 8.23223 2.60723C8.70107 2.13839 9.33696 1.875 10 1.875C10.663 1.875 11.2989 2.13839 11.7678 2.60723C12.2366 3.07607 12.5 3.71196 12.5 4.375V9.0625C12.5 9.72554 12.2366 10.3614 11.7678 10.8303C11.2989 11.2991 10.663 11.5625 10 11.5625C9.33696 11.5625 8.70107 11.2991 8.23223 10.8303C7.76339 10.3614 7.5 9.72554 7.5 9.0625V4.375Z" fill="#1E1F1E"/>
<path d="M15.625 6.875V9.0625C15.625 12.1641 13.1016 14.6875 10 14.6875C6.89844 14.6875 4.375 12.1641 4.375 9.0625V6.875H3.125V9.0625C3.125 12.6427 5.87594 15.592 9.375 15.9088V19.375H10.625V15.9088C14.1241 15.592 16.875 12.6427 16.875 9.0625V6.875H15.625Z" fill="#1E1F1E"/>
</svg>
