<svg width="20" height="20" viewBox="0 0 20 20" fill="none" xmlns="http://www.w3.org/2000/svg">
<path fill-rule="evenodd" clip-rule="evenodd" d="M10.0002 1.16669C8.83453 1.16514 7.70758 1.5849 6.82697 2.34864C5.94636 3.11238 5.37143 4.16864 5.2081 5.3228C5.04478 6.47696 5.30406 7.65127 5.93818 8.62936C6.5723 9.60745 7.53854 10.3234 8.65886 10.6454C7.06686 10.8387 5.70153 11.4014 4.6722 12.416C3.36286 13.7054 2.7002 15.6267 2.7002 18.1334C2.7002 18.3013 2.76692 18.4624 2.88569 18.5812C3.00447 18.7 3.16556 18.7667 3.33353 18.7667C3.5015 18.7667 3.66259 18.7 3.78136 18.5812C3.90014 18.4624 3.96686 18.3013 3.96686 18.1334C3.96686 15.84 4.57086 14.2934 5.56153 13.3174C6.55353 12.34 8.0362 11.8334 10.0002 11.8334C11.9642 11.8334 13.4469 12.34 14.4402 13.3174C15.4295 14.2947 16.0335 15.84 16.0335 18.1334C16.0335 18.3013 16.1003 18.4624 16.219 18.5812C16.3378 18.7 16.4989 18.7667 16.6669 18.7667C16.8348 18.7667 16.9959 18.7 17.1147 18.5812C17.2335 18.4624 17.3002 18.3013 17.3002 18.1334C17.3002 15.6267 16.6375 13.7067 15.3269 12.416C14.3002 11.4027 12.9335 10.8387 11.3415 10.6454C12.4581 10.3198 13.42 9.60273 14.0508 8.62559C14.6816 7.64844 14.9391 6.47668 14.7762 5.32508C14.6132 4.17348 14.0407 3.11918 13.1635 2.35544C12.2863 1.59169 11.1633 1.16966 10.0002 1.16669ZM6.43353 6.00002C6.43353 5.05409 6.8093 4.14689 7.47818 3.47801C8.14706 2.80913 9.05426 2.43336 10.0002 2.43336C10.9461 2.43336 11.8533 2.80913 12.5222 3.47801C13.1911 4.14689 13.5669 5.05409 13.5669 6.00002C13.5669 6.94596 13.1911 7.85316 12.5222 8.52204C11.8533 9.19092 10.9461 9.56669 10.0002 9.56669C9.05426 9.56669 8.14706 9.19092 7.47818 8.52204C6.8093 7.85316 6.43353 6.94596 6.43353 6.00002Z" fill="#1E1F1E"/>
</svg>
