<svg width="20" height="20" viewBox="0 0 20 20" fill="none" xmlns="http://www.w3.org/2000/svg">
<g id="Icon / All">
<path id="Vector" d="M17 17L12 12M2 7.83333C2 8.59938 2.15088 9.35792 2.44404 10.0657C2.73719 10.7734 3.16687 11.4164 3.70854 11.9581C4.25022 12.4998 4.89328 12.9295 5.60101 13.2226C6.30875 13.5158 7.06729 13.6667 7.83333 13.6667C8.59938 13.6667 9.35792 13.5158 10.0657 13.2226C10.7734 12.9295 11.4164 12.4998 11.9581 11.9581C12.4998 11.4164 12.9295 10.7734 13.2226 10.0657C13.5158 9.35792 13.6667 8.59938 13.6667 7.83333C13.6667 7.06729 13.5158 6.30875 13.2226 5.60101C12.9295 4.89328 12.4998 4.25022 11.9581 3.70854C11.4164 3.16687 10.7734 2.73719 10.0657 2.44404C9.35792 2.15088 8.59938 2 7.83333 2C7.06729 2 6.30875 2.15088 5.60101 2.44404C4.89328 2.73719 4.25022 3.16687 3.70854 3.70854C3.16687 4.25022 2.73719 4.89328 2.44404 5.60101C2.15088 6.30875 2 7.06729 2 7.83333Z" stroke="#1E1F1E" stroke-linecap="round" stroke-linejoin="round"/>
</g>
</svg>
