<svg width="20" height="20" viewBox="0 0 20 20" fill="none" xmlns="http://www.w3.org/2000/svg">
<path d="M2.70649 1.87499C2.01864 1.54642 1.26292 2.17499 1.45935 2.91142L2.89935 8.29214C2.93544 8.42737 3.01046 8.54902 3.1151 8.64197C3.21974 8.73493 3.34938 8.79509 3.48792 8.81499L10.5479 9.82356C10.7522 9.85214 10.7522 10.1479 10.5479 10.1771L3.48864 11.185C3.3501 11.2049 3.22045 11.2651 3.11581 11.358C3.01118 11.451 2.93615 11.5726 2.90007 11.7079L1.45935 17.0914C1.26292 17.8271 2.01864 18.4557 2.70649 18.1278L18.0622 10.8071C18.7401 10.4843 18.7401 9.51856 18.0622 9.19499L2.70649 1.87499Z" fill="#1E1F1E"/>
</svg>
