<svg width="40" height="40" viewBox="0 0 40 40" fill="none" xmlns="http://www.w3.org/2000/svg">
<circle cx="20" cy="20" r="20" fill="#A1B5FF"/>
<path d="M20 22.8125C20.9942 22.8114 21.9474 22.4159 22.6504 21.7129C23.3534 21.0099 23.7489 20.0567 23.75 19.0625V14.375C23.75 13.3804 23.3549 12.4266 22.6517 11.7233C21.9484 11.0201 20.9946 10.625 20 10.625C19.0054 10.625 18.0516 11.0201 17.3483 11.7233C16.6451 12.4266 16.25 13.3804 16.25 14.375V19.0625C16.2511 20.0567 16.6466 21.0099 17.3496 21.7129C18.0526 22.4159 19.0058 22.8114 20 22.8125ZM17.5 14.375C17.5 13.712 17.7634 13.0761 18.2322 12.6072C18.7011 12.1384 19.337 11.875 20 11.875C20.663 11.875 21.2989 12.1384 21.7678 12.6072C22.2366 13.0761 22.5 13.712 22.5 14.375V19.0625C22.5 19.7255 22.2366 20.3614 21.7678 20.8303C21.2989 21.2991 20.663 21.5625 20 21.5625C19.337 21.5625 18.7011 21.2991 18.2322 20.8303C17.7634 20.3614 17.5 19.7255 17.5 19.0625V14.375Z" fill="#1E1F1E"/>
<path d="M25.625 16.875V19.0625C25.625 22.1641 23.1016 24.6875 20 24.6875C16.8984 24.6875 14.375 22.1641 14.375 19.0625V16.875H13.125V19.0625C13.125 22.6427 15.8759 25.592 19.375 25.9088V29.375H20.625V25.9088C24.1241 25.592 26.875 22.6427 26.875 19.0625V16.875H25.625Z" fill="#1E1F1E"/>
</svg>
